<svg width="24" height="24" fill="none" xmlns="http://www.w3.org/2000/svg"><path fill-rule="evenodd" clip-rule="evenodd" d="M16.707 7.293a1 1 0 0 0-1.414 0L12 10.586 8.707 7.293a1 1 0 0 0-1.414 1.414L10.586 12l-3.293 3.293a1 1 0 1 0 1.414 1.414L12 13.414l3.293 3.293a1 1 0 0 0 1.414-1.414L13.414 12l3.293-3.293a1 1 0 0 0 0-1.414z" fill="#051033" fill-opacity=".01"/><mask id="a" maskUnits="userSpaceOnUse" x="7" y="7" width="11" height="11"><path fill-rule="evenodd" clip-rule="evenodd" d="M16.707 7.293a1 1 0 0 0-1.414 0L12 10.586 8.707 7.293a1 1 0 0 0-1.414 1.414L10.586 12l-3.293 3.293a1 1 0 1 0 1.414 1.414L12 13.414l3.293 3.293a1 1 0 0 0 1.414-1.414L13.414 12l3.293-3.293a1 1 0 0 0 0-1.414z" fill="#fff"/></mask><g mask="url(#a)"><path fill-rule="evenodd" clip-rule="evenodd" d="M0 0h24v24H0V0z" fill="#6C798F"/></g></svg>