<svg width="24" height="24" fill="none" xmlns="http://www.w3.org/2000/svg"><rect width="24" height="24" rx="12" fill="#fff" fill-opacity=".01"/><mask id="a" maskUnits="userSpaceOnUse" x="0" y="0" width="24" height="24"><rect width="24" height="24" rx="12" fill="#fff"/></mask><g mask="url(#a)" fill-rule="evenodd" clip-rule="evenodd"><path d="M0 0h24v24H0V0z" fill="#FFAD0D"/><path d="M17.604 8.49c.24.107.396.346.396.61v5.84a.667.667 0 0 1-.343.584l-5.333 2.962a.667.667 0 0 1-.648 0l-5.333-2.963A.667.667 0 0 1 6 14.941V9.1c0-.264.155-.503.396-.61l5.333-2.37a.667.667 0 0 1 .542 0l5.333 2.37z" fill="#fff"/><path d="M13.978 6.816L9.067 9.545v3.059l1.333.667v-2.942l5.103-2.835-1.525-.678z" fill="#E49C0F"/></g></svg>