<svg width="32" height="32" fill="none" xmlns="http://www.w3.org/2000/svg"><path opacity=".3" fill-rule="evenodd" clip-rule="evenodd" d="M6 8.682c9.22 5.19 12.552 10.962 9.998 17.318C9.409 24.923 6.076 19.15 6 8.682z" fill="#182C4F"/><path opacity=".3" fill-rule="evenodd" clip-rule="evenodd" d="M26 8.682C16.781 13.872 13.448 19.644 16.002 26c6.59-1.077 9.922-6.85 9.998-17.318z" fill="#182C4F"/><path opacity=".3" fill-rule="evenodd" clip-rule="evenodd" d="M15.995 6s-8.083 13.657 0 19.997c7.754-6.34 0-19.997 0-19.997z" fill="#182C4F"/><mask id="a" maskUnits="userSpaceOnUse" x="6" y="6" width="21" height="20"><path opacity=".3" fill-rule="evenodd" clip-rule="evenodd" d="M6 8.682c9.22 5.19 12.552 10.962 9.998 17.318C9.409 24.923 6.076 19.15 6 8.682z" fill="#182C4F"/><path opacity=".3" fill-rule="evenodd" clip-rule="evenodd" d="M26 8.682C16.781 13.872 13.448 19.644 16.002 26c6.59-1.077 9.922-6.85 9.998-17.318z" fill="#182C4F"/><path opacity=".3" fill-rule="evenodd" clip-rule="evenodd" d="M15.995 6s-8.083 13.657 0 19.997c7.754-6.34 0-19.997 0-19.997z" fill="#182C4F"/></mask><g mask="url(#a)"><path fill-rule="evenodd" clip-rule="evenodd" d="M0 0h32v32H0V0z" fill="#182C4F"/></g></svg>