<svg width="32" height="32" fill="none" xmlns="http://www.w3.org/2000/svg"><path fill-rule="evenodd" clip-rule="evenodd" d="M4 13.333c0 6.124 3.875 11.818 11.626 17.081a.666.666 0 0 0 .749 0C24.125 25.151 28 19.457 28 13.333c0-6.627-5.373-12-12-12s-12 5.373-12 12zm21.333 0a9.333 9.333 0 1 0-18.666 0c0 4.833 3.013 9.524 9.333 14.089 6.32-4.565 9.333-9.256 9.333-14.089zm-14.666 0a5.333 5.333 0 1 0 10.666 0 5.333 5.333 0 0 0-10.666 0zm8 0a2.667 2.667 0 1 1-5.334 0 2.667 2.667 0 0 1 5.334 0z" fill="#051033" fill-opacity=".01"/><mask id="a" maskUnits="userSpaceOnUse" x="4" y="1" width="24" height="30"><path fill-rule="evenodd" clip-rule="evenodd" d="M4 13.333c0 6.124 3.875 11.818 11.626 17.081a.666.666 0 0 0 .749 0C24.125 25.151 28 19.457 28 13.333c0-6.627-5.373-12-12-12s-12 5.373-12 12zm21.333 0a9.333 9.333 0 1 0-18.666 0c0 4.833 3.013 9.524 9.333 14.089 6.32-4.565 9.333-9.256 9.333-14.089zm-14.666 0a5.333 5.333 0 1 0 10.666 0 5.333 5.333 0 0 0-10.666 0zm8 0a2.667 2.667 0 1 1-5.334 0 2.667 2.667 0 0 1 5.334 0z" fill="#fff"/></mask><g mask="url(#a)"><path fill-rule="evenodd" clip-rule="evenodd" d="M0 0h32v32H0V0z" fill="#182C4F"/></g></svg>