<svg width="16" height="16" fill="none" xmlns="http://www.w3.org/2000/svg"><path fill-rule="evenodd" clip-rule="evenodd" d="M6.862 12.472l6.667-6.667a.667.667 0 0 0 0-.943l-2.39-2.39a.667.667 0 0 0-.944 0L3.53 9.138a.667.667 0 0 0-.196.472V12c0 .368.299.667.667.667h2.39c.177 0 .347-.07.472-.195zM4.667 9.886l6-6 1.447 1.448-6 6H4.667V9.886z" fill="#051033" fill-opacity=".01"/><mask id="a" maskUnits="userSpaceOnUse" x="3" y="2" width="11" height="11"><path fill-rule="evenodd" clip-rule="evenodd" d="M6.862 12.472l6.667-6.667a.667.667 0 0 0 0-.943l-2.39-2.39a.667.667 0 0 0-.944 0L3.53 9.138a.667.667 0 0 0-.196.472V12c0 .368.299.667.667.667h2.39c.177 0 .347-.07.472-.195zM4.667 9.886l6-6 1.447 1.448-6 6H4.667V9.886z" fill="#fff"/></mask><g mask="url(#a)"><path fill-rule="evenodd" clip-rule="evenodd" d="M0 0h16v16H0V0z" fill="#182C4F"/></g></svg>