<svg width="16" height="16" fill="none" xmlns="http://www.w3.org/2000/svg"><path d="M8 9.057l2.862-2.862a.667.667 0 1 1 .943.943L8.47 10.471a.667.667 0 0 1-.942 0L4.195 7.138a.667.667 0 1 1 .943-.943L8 9.057z" fill="#051033" fill-opacity=".01"/><mask id="a" maskUnits="userSpaceOnUse" x="4" y="6" width="8" height="5"><path d="M8 9.057l2.862-2.862a.667.667 0 1 1 .943.943L8.47 10.471a.667.667 0 0 1-.942 0L4.195 7.138a.667.667 0 1 1 .943-.943L8 9.057z" fill="#fff"/></mask><g mask="url(#a)"><path fill-rule="evenodd" clip-rule="evenodd" d="M0 0h16v16H0V0z" fill="#C9CED6"/></g></svg>