<svg width="16" height="16" fill="none" xmlns="http://www.w3.org/2000/svg"><path fill-rule="evenodd" clip-rule="evenodd" d="M8.677 3.694L8 4.371l-.676-.676A3.51 3.51 0 0 0 2.36 8.658l.676.676s4.965 4.165 4.967 4.163l4.958-4.163.677-.676a3.508 3.508 0 1 0-4.962-4.964zm3.384 4.656L8 11.76 3.939 8.35l-.635-.635A2.176 2.176 0 1 1 6.38 4.638L8 6.257l1.619-1.62a2.175 2.175 0 1 1 3.077 3.078l-.635.635z" fill="#051033" fill-opacity=".01"/><mask id="a" maskUnits="userSpaceOnUse" x="1" y="2" width="14" height="12"><path fill-rule="evenodd" clip-rule="evenodd" d="M8.677 3.694L8 4.371l-.676-.676A3.51 3.51 0 0 0 2.36 8.658l.676.676s4.965 4.165 4.967 4.163l4.958-4.163.677-.676a3.508 3.508 0 1 0-4.962-4.964zm3.384 4.656L8 11.76 3.939 8.35l-.635-.635A2.176 2.176 0 1 1 6.38 4.638L8 6.257l1.619-1.62a2.175 2.175 0 1 1 3.077 3.078l-.635.635z" fill="#fff"/></mask><g mask="url(#a)"><path fill-rule="evenodd" clip-rule="evenodd" d="M0 0h16v16H0V0z" fill="#182C4F"/></g></svg>