<svg width="25" height="24" fill="none" xmlns="http://www.w3.org/2000/svg"><path fill-rule="evenodd" clip-rule="evenodd" d="M.003 12c0-6.627 5.373-12 12-12s12 5.373 12 12-5.373 12-12 12-12-5.373-12-12zm11.992.193c1.77 0 3.208-1.389 3.208-3.096C15.203 7.389 13.764 6 11.995 6c-1.77 0-3.208 1.39-3.208 3.097s1.439 3.096 3.208 3.096zm3.169 1.782c-.58.352-1.21.601-1.863.745l1.793 1.731a.884.884 0 0 1 0 1.283.963.963 0 0 1-1.328 0l-1.763-1.701-1.762 1.701a.956.956 0 0 1-.665.266.955.955 0 0 1-.664-.266.885.885 0 0 1 0-1.283l1.793-1.731a6.14 6.14 0 0 1-1.863-.745.889.889 0 0 1-.294-1.25.959.959 0 0 1 1.295-.286 4.198 4.198 0 0 0 4.32 0 .96.96 0 0 1 1.295.285.889.889 0 0 1-.294 1.251z" fill="#B5BBC6"/><path d="M11.995 7.814c.732 0 1.328.575 1.328 1.282 0 .707-.596 1.282-1.328 1.282-.732 0-1.328-.575-1.328-1.282 0-.707.596-1.282 1.328-1.282z" fill="#B5BBC6"/></svg>