<svg width="16" height="16" fill="none" xmlns="http://www.w3.org/2000/svg"><path fill-rule="evenodd" clip-rule="evenodd" d="M2 8a1.333 1.333 0 1 0 2.667 0A1.333 1.333 0 0 0 2 8zm6 1.334a1.333 1.333 0 1 1 0-2.667 1.333 1.333 0 0 1 0 2.667zm4.667 0a1.333 1.333 0 1 1 0-2.667 1.333 1.333 0 0 1 0 2.667z" fill="#051033" fill-opacity=".01"/><mask id="a" maskUnits="userSpaceOnUse" x="2" y="6" width="12" height="4"><path fill-rule="evenodd" clip-rule="evenodd" d="M2 8a1.333 1.333 0 1 0 2.667 0A1.333 1.333 0 0 0 2 8zm6 1.334a1.333 1.333 0 1 1 0-2.667 1.333 1.333 0 0 1 0 2.667zm4.667 0a1.333 1.333 0 1 1 0-2.667 1.333 1.333 0 0 1 0 2.667z" fill="#fff"/></mask><g mask="url(#a)"><path fill-rule="evenodd" clip-rule="evenodd" d="M0 0h16v16H0V0z" fill="#182C4F"/></g></svg>