<svg width="32" height="32" fill="none" xmlns="http://www.w3.org/2000/svg"><path fill-rule="evenodd" clip-rule="evenodd" d="M21.929 9.295l.743-3.189A1.431 1.431 0 0 1 24.066 5h2.504a1.431 1.431 0 0 1 0 2.864H25.2l-1.877 8.032-.88 5.285a1 1 0 0 1-1.166.82L7.148 19.43a1 1 0 0 1-.782-.71L4.04 10.57a1 1 0 0 1 .962-1.275h16.928z" fill="#182C4F"/><path opacity=".3" fill-rule="evenodd" clip-rule="evenodd" d="M11.023 25.18a1.82 1.82 0 1 1-3.64 0 1.82 1.82 0 0 1 3.64 0zm10.913 0a1.82 1.82 0 1 1-3.639 0 1.82 1.82 0 0 1 3.64 0z" fill="#182C4F"/><mask id="a" maskUnits="userSpaceOnUse" x="4" y="5" width="25" height="22"><path fill-rule="evenodd" clip-rule="evenodd" d="M21.929 9.295l.743-3.189A1.431 1.431 0 0 1 24.066 5h2.504a1.431 1.431 0 0 1 0 2.864H25.2l-1.877 8.032-.88 5.285a1 1 0 0 1-1.166.82L7.148 19.43a1 1 0 0 1-.782-.71L4.04 10.57a1 1 0 0 1 .962-1.275h16.928z" fill="#182C4F"/><path opacity=".3" fill-rule="evenodd" clip-rule="evenodd" d="M11.023 25.18a1.82 1.82 0 1 1-3.64 0 1.82 1.82 0 0 1 3.64 0zm10.913 0a1.82 1.82 0 1 1-3.639 0 1.82 1.82 0 0 1 3.64 0z" fill="#182C4F"/></mask><g mask="url(#a)"><path fill-rule="evenodd" clip-rule="evenodd" d="M0 0h32v32H0V0z" fill="#182C4F"/></g></svg>