<svg width="32" height="32" fill="none" xmlns="http://www.w3.org/2000/svg"><path fill-rule="evenodd" clip-rule="evenodd" d="M14.435 6h-1.044v4.769a3.652 3.652 0 1 0 7.305 0V6h-1.044l-.47 4.744a.576.576 0 0 1-1.146 0L17.566 6h-1.044l-.47 4.744a.576.576 0 0 1-1.147 0L14.435 6z" fill="#182C4F"/><rect opacity=".3" x="15.563" y="16.526" width="2.961" height="9.474" rx="1.481" fill="#182C4F"/><rect opacity=".3" x="23.921" y="18.632" width="2.941" height="7.368" rx="1.47" fill="#182C4F"/><path fill-rule="evenodd" clip-rule="evenodd" d="M23.826 6v10.526H28v-6.352A4.174 4.174 0 0 0 23.826 6z" fill="#182C4F"/><rect opacity=".3" x="6.182" y="17.579" width="2.941" height="8.421" rx="1.47" fill="#182C4F"/><path fill-rule="evenodd" clip-rule="evenodd" d="M11.304 10.737c0 2.035-1.635 4.737-3.652 4.737C5.635 15.474 4 12.772 4 10.737S5.635 6 7.652 6c2.017 0 3.652 2.702 3.652 4.737zm-1.588.416c.02-1.194-.882-3.358-2.054-3.467l.053 5.627a2.2 2.2 0 0 0 2-2.16z" fill="#182C4F"/><mask id="a" maskUnits="userSpaceOnUse" x="4" y="6" width="24" height="21"><path fill-rule="evenodd" clip-rule="evenodd" d="M14.435 6h-1.044v4.769a3.652 3.652 0 1 0 7.305 0V6h-1.044l-.47 4.744a.576.576 0 0 1-1.146 0L17.566 6h-1.044l-.47 4.744a.576.576 0 0 1-1.147 0L14.435 6z" fill="#182C4F"/><rect opacity=".3" x="15.563" y="16.526" width="2.961" height="9.474" rx="1.481" fill="#182C4F"/><rect opacity=".3" x="23.921" y="18.632" width="2.941" height="7.368" rx="1.47" fill="#182C4F"/><path fill-rule="evenodd" clip-rule="evenodd" d="M23.826 6v10.526H28v-6.352A4.174 4.174 0 0 0 23.826 6z" fill="#182C4F"/><rect opacity=".3" x="6.182" y="17.579" width="2.941" height="8.421" rx="1.47" fill="#182C4F"/><path fill-rule="evenodd" clip-rule="evenodd" d="M11.304 10.737c0 2.035-1.635 4.737-3.652 4.737C5.635 15.474 4 12.772 4 10.737S5.635 6 7.652 6c2.017 0 3.652 2.702 3.652 4.737zm-1.588.416c.02-1.194-.882-3.358-2.054-3.467l.053 5.627a2.2 2.2 0 0 0 2-2.16z" fill="#182C4F"/></mask><g mask="url(#a)"><path fill-rule="evenodd" clip-rule="evenodd" d="M0 0h32v32H0V0z" fill="#182C4F"/></g></svg>