<svg width="16" height="16" fill="none" xmlns="http://www.w3.org/2000/svg"><path d="M4.667 2.444L3 4.667v7.777a1.111 1.111 0 0 0 1.111 1.111h7.778A1.111 1.111 0 0 0 13 12.445V4.666l-1.667-2.223H4.667zM3 4.667h10M10.222 6.889a2.222 2.222 0 1 1-4.444 0" stroke="#000" stroke-linecap="round" stroke-linejoin="round"/><mask id="a" maskUnits="userSpaceOnUse" x="2" y="1" width="12" height="14"><path d="M4.667 2.444L3 4.667v7.777a1.111 1.111 0 0 0 1.111 1.111h7.778A1.111 1.111 0 0 0 13 12.445V4.666l-1.667-2.223H4.667zM3 4.667h10M10.222 6.889a2.222 2.222 0 1 1-4.444 0" stroke="#000" stroke-linecap="round" stroke-linejoin="round"/></mask><g mask="url(#a)"><path fill-rule="evenodd" clip-rule="evenodd" d="M0 0h16v16H0V0z" fill="#182C4F"/></g></svg>