<svg width="16" height="16" fill="none" xmlns="http://www.w3.org/2000/svg"><path fill-rule="evenodd" clip-rule="evenodd" d="M7.333 12a4.667 4.667 0 1 1 3.738-1.871l1.4 1.4a.667.667 0 1 1-.943.943l-1.4-1.4A4.646 4.646 0 0 1 7.333 12zm0-1.333a3.333 3.333 0 1 0 0-6.667 3.333 3.333 0 0 0 0 6.667z" fill="#051033" fill-opacity=".01"/><mask id="a" maskUnits="userSpaceOnUse" x="2" y="2" width="11" height="11"><path fill-rule="evenodd" clip-rule="evenodd" d="M7.333 12a4.667 4.667 0 1 1 3.738-1.871l1.4 1.4a.667.667 0 1 1-.943.943l-1.4-1.4A4.646 4.646 0 0 1 7.333 12zm0-1.333a3.333 3.333 0 1 0 0-6.667 3.333 3.333 0 0 0 0 6.667z" fill="#fff"/></mask><g mask="url(#a)"><path fill-rule="evenodd" clip-rule="evenodd" d="M0 0h16v16H0V0z" fill="#182C4F"/></g></svg>