<svg width="16" height="16" fill="none" xmlns="http://www.w3.org/2000/svg"><path fill-rule="evenodd" clip-rule="evenodd" d="M2 6.667c0 3.062 1.938 5.91 5.813 8.54a.334.334 0 0 0 .374 0C12.062 12.578 14 9.73 14 6.668a6 6 0 0 0-12 0zm10.667 0a4.667 4.667 0 0 0-9.334 0c0 2.416 1.507 4.762 4.667 7.044 3.16-2.282 4.667-4.628 4.667-7.044zm-7.334 0a2.667 2.667 0 1 0 5.334 0 2.667 2.667 0 0 0-5.334 0zm4 0a1.333 1.333 0 1 1-2.666 0 1.333 1.333 0 0 1 2.666 0z" fill="#051033" fill-opacity=".01"/><mask id="a" maskUnits="userSpaceOnUse" x="2" y="0" width="12" height="16"><path fill-rule="evenodd" clip-rule="evenodd" d="M2 6.667c0 3.062 1.938 5.91 5.813 8.54a.334.334 0 0 0 .374 0C12.062 12.578 14 9.73 14 6.668a6 6 0 0 0-12 0zm10.667 0a4.667 4.667 0 0 0-9.334 0c0 2.416 1.507 4.762 4.667 7.044 3.16-2.282 4.667-4.628 4.667-7.044zm-7.334 0a2.667 2.667 0 1 0 5.334 0 2.667 2.667 0 0 0-5.334 0zm4 0a1.333 1.333 0 1 1-2.666 0 1.333 1.333 0 0 1 2.666 0z" fill="#fff"/></mask><g mask="url(#a)"><path fill-rule="evenodd" clip-rule="evenodd" d="M0 0h16v16H0V0z" fill="#182C4F"/></g></svg>