<svg width="24" height="24" fill="none" xmlns="http://www.w3.org/2000/svg"><path d="M7 3.667L4.5 7v11.667a1.667 1.667 0 0 0 1.667 1.667h11.666a1.666 1.666 0 0 0 1.667-1.667V7L17 3.667H7zM4.5 7h15M15.333 10.334a3.333 3.333 0 0 1-6.666 0" stroke="#000" stroke-width="1.8" stroke-linecap="round" stroke-linejoin="round"/><mask id="a" maskUnits="userSpaceOnUse" x="3" y="2" width="18" height="20"><path d="M7 3.667L4.5 7v11.667a1.667 1.667 0 0 0 1.667 1.667h11.666a1.666 1.666 0 0 0 1.667-1.667V7L17 3.667H7zM4.5 7h15M15.333 10.334a3.333 3.333 0 0 1-6.666 0" stroke="#000" stroke-width="1.8" stroke-linecap="round" stroke-linejoin="round"/></mask><g mask="url(#a)"><path fill-rule="evenodd" clip-rule="evenodd" d="M0 0h24v24H0V0z" fill="#182C4F"/></g></svg>