<svg width="25" height="24" fill="none" xmlns="http://www.w3.org/2000/svg"><path fill-rule="evenodd" clip-rule="evenodd" d="M12.003 0c-6.627 0-12 5.373-12 12s5.373 12 12 12 12-5.373 12-12-5.373-12-12-12zm.977 15.788c-.118.125-.35.15-.35.15h-.764s-1.688.1-3.175-1.42C7.07 12.862 5.638 9.574 5.638 9.574s-.083-.216.007-.32c.1-.117.375-.124.375-.124l1.829-.012s.172.028.295.117c.102.073.16.21.16.21s.295.734.686 1.398c.765 1.296 1.12 1.58 1.38 1.44.378-.202.264-1.832.264-1.832s.007-.59-.19-.854c-.153-.204-.44-.264-.568-.28-.103-.014.066-.249.285-.354.33-.158.91-.167 1.597-.16.535.005.69.038.898.088.486.114.47.483.438 1.278-.01.238-.021.514-.021.832 0 .072-.002.148-.005.227-.011.407-.024.874.25 1.047.14.089.482.013 1.34-1.415.405-.677.71-1.473.71-1.473s.067-.142.17-.203c.106-.062.249-.043.249-.043l1.924-.011s.579-.069.672.188c.098.269-.216.897-1.002 1.926-.746.976-1.11 1.335-1.076 1.653.024.232.26.442.713.854.945.862 1.199 1.315 1.26 1.424l.01.02c.425.69-.47.744-.47.744l-1.709.023s-.367.072-.85-.254c-.253-.17-.5-.449-.736-.714-.36-.405-.693-.78-.976-.69-.477.148-.462 1.155-.462 1.155s.003.216-.105.33z" fill="#B5BBC6"/></svg>