<svg width="32" height="32" fill="none" xmlns="http://www.w3.org/2000/svg"><rect opacity=".3" x="10.108" y="4" width="11.785" height="3.429" rx="1" fill="#182C4F"/><path fill-rule="evenodd" clip-rule="evenodd" d="M12 9.714a5 5 0 0 0-5 5V26a2 2 0 0 0 2 2h14a2 2 0 0 0 2-2V14.714a5 5 0 0 0-5-5h-8zm.108 3.429a2 2 0 0 0-2 2v1.714a2 2 0 0 0 2 2h7.785a2 2 0 0 0 2-2v-1.714a2 2 0 0 0-2-2h-7.785z" fill="#182C4F"/><mask id="a" maskUnits="userSpaceOnUse" x="7" y="4" width="18" height="24"><rect opacity=".3" x="10.108" y="4" width="11.785" height="3.429" rx="1" fill="#182C4F"/><path fill-rule="evenodd" clip-rule="evenodd" d="M12 9.714a5 5 0 0 0-5 5V26a2 2 0 0 0 2 2h14a2 2 0 0 0 2-2V14.714a5 5 0 0 0-5-5h-8zm.108 3.429a2 2 0 0 0-2 2v1.714a2 2 0 0 0 2 2h7.785a2 2 0 0 0 2-2v-1.714a2 2 0 0 0-2-2h-7.785z" fill="#182C4F"/></mask><g mask="url(#a)"><path fill-rule="evenodd" clip-rule="evenodd" d="M0 0h32v32H0V0z" fill="#182C4F"/></g></svg>